# xmcd CD database file
#
# Track frame offsets:
#	150
#	13381
#	27587
#	40464
#	54308
#	68075
#	80404
#	91360
#	106839
#	121047
#	134900
#	151738
#	169899
#	182216
#	194682
#	209541
#	226540
#	244579
#	266603
#	280524
#	296900
#
# Disc length: 4227 seconds
#
# Revision: 0
# Processed by: cddbd v1.5.2PL0 Copyright (c) Steve Scherf et al.
# Submitted via: CDex 1.51
#
DISCID=30108115
DTITLE=Chet Baker - Chet Sing ! [CD1)
DYEAR=2013
DGENRE=Jazz
TTITLE0=The Thrill Is Gone
TTITLE1=But Not For Me
TTITLE2=Time After Time
TTITLE3=I Get Along Without You Very Well
TTITLE4=There Will Never Be Another You
TTITLE5=Look For The Silver Lining
TTITLE6=My Funny Valentine
TTITLE7=I Fall In Love Too Easily
TTITLE8=This Is Always
TTITLE9=Someone To Watch Over Me
TTITLE10=Grey December
TTITLE11=I Wish I Knew
TTITLE12=Daybreak
TTITLE13=Just Friends
TTITLE14=I Remember You
TTITLE15=Let's Get Lost
TTITLE16=Long Ago And Far Away
TTITLE17=You Don't Know What Love Is
TTITLE18=That Old Feeling
TTITLE19=It's Always You
TTITLE20=I've Never Been In Love Before
EXTD=YEAR: 2013
EXTT0=
EXTT1=
EXTT2=
EXTT3=
EXTT4=
EXTT5=
EXTT6=
EXTT7=
EXTT8=
EXTT9=
EXTT10=
EXTT11=
EXTT12=
EXTT13=
EXTT14=
EXTT15=
EXTT16=
EXTT17=
EXTT18=
EXTT19=
EXTT20=
PLAYORDER=
